<svg width="20" height="6" viewBox="0 0 104 166" fill="none" xmlns="http://www.w3.org/2000/svg">
<path d="M55.9412 48.5C87.5412 34.5 90.1079 19.3334 87.4412 13.5C113.441 29.5 101 47.5 96 52C91 56.5 68.4412 69.5 55.9412 78V48.5Z" fill="#3F3F97"/>
<path d="M65.4412 18L59.4412 37L74.5789 25.4476C77.113 23.5136 79.4156 20.985 79.5709 17.801C79.7041 15.068 78.8297 12.2102 75.4412 11C69.8412 9.00003 66.4412 14.8334 65.4412 18Z" fill="#8BC94E"/>
<path d="M45.3054 26.6327C41.735 5.35496 22.9862 0 13.9412 0C19 6.5 20.7745 18.6667 20.4412 24.5V70C23.2412 75.2 38.2745 83.8333 45.4412 87.5V28.3682C45.4412 27.7901 45.4011 27.2027 45.3054 26.6327Z" fill="#8BC94E"/>
<path d="M33.4412 89.5C13.4412 80.3 10.4412 69.6667 11.4412 65.5C-12.9588 85.5 7.27453 105.833 20.4412 113.5C26.4521 117 74.7746 145.833 97.4412 161.5V141.401C97.4412 140.469 97.3684 139.535 97.1709 138.624C94.4122 125.899 85.6261 118.931 81.4412 117L33.4412 89.5Z" fill="#3F3F97"/>
<path d="M45.4412 137L19.4413 122C17.6224 134.312 17.5062 145.894 20.4412 152.5C25.8972 164.779 38.3972 166 45.4412 166V137Z" fill="#8BC94E"/>
</svg>
